Coordinates
version=1
nRows=6
nColumns=63
inDegrees=yes

Units are S.I. units (second, meters, Newtons, ...)
If the header above contains a line with 'inDegrees', this indicates whether rotational values are in degrees (yes) or radians (no).

endheader
time	pelvis_tilt	pelvis_list	pelvis_rotation	pelvis_tx	pelvis_ty	pelvis_tz	hip_flexion_r	hip_adduction_r	hip_rotation_r	knee_angle_r	knee_angle_r_beta	ankle_angle_r	subtalar_angle_r	mtp_angle_r	hip_flexion_l	hip_adduction_l	hip_rotation_l	knee_angle_l	knee_angle_l_beta	ankle_angle_l	subtalar_angle_l	mtp_angle_l	L5_S1_Flex_Ext	L5_S1_Lat_Bending	L5_S1_axial_rotation	L4_L5_Flex_Ext	L4_L5_Lat_Bending	L4_L5_axial_rotation	L3_L4_Flex_Ext	L3_L4_Lat_Bending	L3_L4_axial_rotation	L2_L3_Flex_Ext	L2_L3_Lat_Bending	L2_L3_axial_rotation	L1_L2_Flex_Ext	L1_L2_Lat_Bending	L1_L2_axial_rotation	L1_T12_Flex_Ext	L1_T12_Lat_Bending	L1_T12_axial_rotation	Abs_r3	Abs_r2	Abs_r1	Abs_t1	Abs_t2	neck_flexion	neck_bending	neck_rotation	arm_flex_r	arm_add_r	arm_rot_r	elbow_flex_r	pro_sup_r	wrist_flex_r	wrist_dev_r	arm_flex_l	arm_add_l	arm_rot_l	elbow_flex_l	pro_sup_l	wrist_flex_l	wrist_dev_l
      0.00000000	      6.69553271	     -2.14710740	     88.81290309	      0.26713832	      0.85204526	      0.75493091	      9.44435778	      3.03313099	     -6.64190156	     15.11983106	      0.26389083	     40.24761499	     14.73960911	      0.00000000	     10.39915180	     -5.71734260	     -2.59217963	     15.09439220	      0.26344684	     39.74093697	      3.50772109	      0.00000000	      0.29643371	      0.59144714	     -1.57380933	      0.55050704	      0.78662469	     -1.67217242	      0.48701094	      1.43804457	     -1.67217242	      0.33879408	      1.43804457	     -1.37708317	      0.27526834	      1.20607900	     -1.27872008	      0.16938222	      0.91615161	     -1.18035700	      2.11739632	      6.69056830	     -8.75305537	      0.00000000	      0.00000000	     27.82409534	     -4.82288542	      0.83630390	     12.92762806	    -15.04743758	     65.27168758	     30.54722458	     82.81939038	     -7.29764444	      4.54630613	      5.21309514	    -12.09934633	     40.96670869	     37.92172873	     87.16633732	      7.22774220	      8.96138696
      0.01666667	      6.67576904	     -2.73473669	     90.21112005	      0.26615795	      0.85095925	      0.75489392	      9.98417230	      2.81565315	     -8.22122867	     15.15215295	      0.26445496	     40.50502208	     15.52405797	      0.00000000	     11.50459115	     -5.42352002	     -1.11119357	     15.62280375	      0.27266936	     39.12944703	      2.79667450	      0.00000000	      0.33505387	      0.59970974	     -1.82755621	      0.62222853	      0.79761395	     -1.94177848	      0.55045999	      1.45813426	     -1.94177848	      0.38293306	      1.45813426	     -1.59911169	      0.31113102	      1.22292810	     -1.48488942	      0.19144978	      0.92895039	     -1.37066716	      2.39325625	      6.78403652	    -10.16431939	      0.00000000	      0.00000000	     27.99892538	     -3.25491641	      1.22656575	     11.03320040	    -15.02944657	     55.59701514	     31.69280192	     84.33196873	     -3.25251030	      7.17315824	      3.77789522	    -12.95883555	     37.62878815	     40.43214341	     87.69486006	      7.57025668	      8.62346812
      0.03333333	      6.74281567	     -3.03156289	     91.23923977	      0.26553933	      0.85041777	      0.75487259	     10.17767336	      2.81770876	     -8.78259620	     15.02243764	      0.26219100	     40.51602359	     15.41698571	      0.00000000	     12.19557774	     -5.33432218	     -0.50497834	     16.07728278	      0.28060152	     38.86703577	      2.93969579	      0.00000000	      0.33625549	      0.61039074	     -2.00599360	      0.62446006	      0.81181968	     -2.13136820	      0.55243414	      1.48410405	     -2.13136820	      0.38430639	      1.48410405	     -1.75524440	      0.31224684	      1.24470880	     -1.62986980	      0.19213638	      0.94549526	     -1.50449520	      2.40183931	      6.90486214	    -11.15673462	      0.00000000	      0.00000000	     28.07076321	     -2.11712028	      1.34734752	      9.96274827	    -15.04888422	     49.87792290	     32.37803730	     82.77861824	     -0.55246810	      9.27127363	      2.61504935	    -13.81668326	     35.27515513	     43.03317747	     88.02924507	      8.00953630	      9.42159040
      0.05000000	      6.67401453	     -3.15744875	     91.95106680	      0.26527972	      0.85022439	      0.75455858	     10.20130549	      2.70832145	     -9.13080934	     14.91542316	      0.26032324	     40.60760995	     15.35237439	      0.00000000	     12.55766609	     -5.17290486	     -0.29132153	     16.38597712	      0.28598925	     38.78770027	      3.32087051	      0.00000000	      0.32558950	      0.59719539	     -2.11980200	      0.60465226	      0.79426986	     -2.25228962	      0.53491099	      1.45202086	     -2.25228962	      0.37211624	      1.45202086	     -1.85482675	      0.30234241	      1.21780083	     -1.72233912	      0.18604184	      0.92505565	     -1.58985150	      2.32565323	      6.75559365	    -11.78970278	      0.00000000	      0.00000000	     28.08264979	     -1.27152845	      1.08190864	      9.00959705	    -14.92203836	     45.37475257	     32.66442249	     81.40611430	      0.95519797	     10.50827719	      1.35508677	    -14.60328918	     32.59941991	     45.84262809	     88.45332599	      9.42249187	     11.37118412
      0.06666667	      6.52230304	     -3.15603728	     92.44818760	      0.26531982	      0.85037001	      0.75406794	     10.11099240	      2.54466920	     -9.25905935	     14.84660150	      0.25912208	     40.69868257	     15.18987921	      0.00000000	     12.65408831	     -4.98679433	     -0.36739948	     16.53762589	      0.28863602	     38.80953746	      3.86898613	      0.00000000	      0.30689763	      0.56738935	     -2.18987842	      0.56993960	      0.75462784	     -2.32674582	      0.50420212	      1.37955048	     -2.32674582	      0.35075331	      1.37955048	     -1.91614361	      0.28498514	      1.15702037	     -1.77927621	      0.17536131	      0.87888611	     -1.64240881	      2.19213911	      6.41842186	    -12.17944678	      0.00000000	      0.00000000	     28.05525437	     -0.64362191	      0.65414421	      8.23429345	    -14.71089855	     42.20293387	     32.47304960	     79.66717601	      1.61223068	     10.63696932	      0.02728992	    -15.34847674	     29.86260851	     48.83149001	     88.76590646	     11.10389657	     13.74698536
      0.08333333	      6.43381184	     -3.04143240	     92.56270285	      0.26555258	      0.85068741	      0.75329475	      9.87641078	      2.49415585	     -9.06555643	     14.69884118	      0.25654317	     40.74982976	     15.03312383	      0.00000000	     12.55932754	     -4.98463175	     -0.97240645	     16.71076983	      0.29165795	     39.05849249	      4.83499375	      0.00000000	      0.27788493	      0.54529653	     -2.20704804	      0.51606011	      0.72524438	     -2.34498854	      0.45653716	      1.32583397	     -2.34498854	      0.31759469	      1.32583397	     -1.93116703	      0.25804395	      1.11196868	     -1.79322653	      0.15878345	      0.84466432	     -1.65528603	      1.98490429	      6.16850337	    -12.27493908	      0.00000000	      0.00000000	     27.99815798	     -0.24063996	      0.11237795	      7.67753783	    -14.74259350	     40.35279908	     32.26620565	     78.25987886	      2.15091706	     10.49476263	     -1.49635845	    -15.69312765	     25.97058894	     52.15757146	     89.00483487	     14.65465224	     18.25781196
